<?xml version="1.0" standalone="no"?>
<!DOCTYPE svg PUBLIC "-//W3C//DTD SVG 20010904//EN"
 "http://www.w3.org/TR/2001/REC-SVG-20010904/DTD/svg10.dtd">
<svg version="1.0" xmlns="http://www.w3.org/2000/svg"
 width="512.000000pt" height="512.000000pt" viewBox="0 0 512.000000 512.000000"
 preserveAspectRatio="xMidYMid meet">

<g transform="translate(0.000000,512.000000) scale(0.100000,-0.100000)"
fill="#000000" stroke="none">
<path d="M988 3933 c-35 -22 -52 -56 -51 -99 1 -47 23 -77 96 -130 34 -24 107
-77 162 -117 382 -277 672 -701 862 -1262 162 -477 249 -1050 269 -1760 7
-261 12 -283 64 -310 36 -19 63 -19 99 -1 52 27 58 47 65 231 16 398 50 658
127 970 138 557 387 1003 756 1355 176 168 366 301 591 414 119 59 142 82 144
139 2 70 -62 124 -133 113 -43 -7 -242 -111 -369 -194 -213 -138 -447 -345
-612 -542 -154 -183 -327 -466 -423 -690 -47 -109 -117 -314 -140 -408 -10
-41 -21 -70 -25 -65 -4 4 -15 55 -24 113 -96 576 -293 1108 -555 1499 -173
257 -350 434 -641 643 -178 127 -203 137 -262 101z"/>
</g>
</svg>
